<svg version="1" xmlns="http://www.w3.org/2000/svg" width="24" height="24" viewBox="0 0 24 24"><g><path d="M16.737 15.663l-1.308-.559c.553-.491 1.027-1.068 1.395-1.715.485.768 1.346 1.366 2.4 1.582 1.382.284 3.319-.144 4.235-2.281.066-.154.05-.332-.042-.472-.093-.14-.249-.225-.417-.225-1.35 0-1.858-2.195-2.396-4.519-.606-2.621-1.293-5.592-3.466-6.615-1.337-.628-3.02-.44-5.138.577-2.118-1.016-3.8-1.204-5.138-.576-2.173 1.023-2.86 3.994-3.466 6.615-.538 2.323-1.045 4.518-2.396 4.518-.168 0-.325.084-.417.225-.092.141-.108.318-.042.472.753 1.758 2.2 2.359 3.46 2.359.272 0 .536-.028.782-.079 1.051-.215 1.912-.81 2.398-1.573.368.644.84 1.218 1.39 1.707l-1.307.559c-3.735 1.563-7.263 3.039-7.263 6.331v1.506c0 .276.224.5.5.5h23c.276 0 .5-.224.5-.5v-1.507c-.001-3.291-3.529-4.767-7.264-6.33zm-12.155-1.672c-.459.096-1.904.257-2.817-1.123 1.537-.548 2.058-2.8 2.605-5.167.555-2.4 1.185-5.12 2.918-5.936 1.085-.513 2.555-.291 4.488.676.141.07.307.07.447 0 1.932-.966 3.401-1.187 4.488-.676 1.735.816 2.365 3.535 2.92 5.935.547 2.367 1.068 4.619 2.605 5.167-.912 1.38-2.351 1.219-2.81 1.124-1.006-.206-2.023-.958-2.026-1.995l.021-.063c.718-.211 1.204-.963 1.204-1.94 0-.985-.494-1.741-1.221-1.945l-.419-1.676c-.055-.223-.255-.379-.485-.379-2.984 0-3.486-.84-3.819-1.396-.099-.166-.192-.322-.328-.457-.188-.187-.519-.187-.707 0-.135.135-.229.292-.328.457-.332.556-.835 1.396-3.819 1.396-.23 0-.429.156-.485.379l-.417 1.675c-.344.095-.64.313-.856.638-.236.353-.365.817-.365 1.308 0 .977.486 1.729 1.204 1.94l.028.084c-.017 1.026-1.026 1.768-2.026 1.974zm2.912-2.58c-.04-.241-.249-.418-.493-.418-.494 0-.625-.654-.625-1s.131-1 .625-1c.229 0 .429-.156.485-.379l.407-1.626c2.642-.067 3.567-.818 4.107-1.601.54.783 1.465 1.534 4.108 1.601l.407 1.626c.056.223.256.379.485.379.494 0 .625.654.625 1s-.131 1-.625 1c-.245 0-.453.177-.493.418-.481 2.886-3.559 4.21-4.507 4.553-.947-.342-4.025-1.667-4.506-4.553zm.156 5.173c.6-.251 1.215-.512 1.828-.781.76.511 1.58.902 2.364 1.164l.158.026.158-.026c.784-.261 1.604-.653 2.363-1.163.614.269 1.229.53 1.829.781.551.231 1.089.457 1.608.684-.205 1.047-1.532 1.773-2.945 2.534-1.176.633-2.365 1.288-3.013 2.204-.648-.917-1.837-1.571-3.013-2.204-1.413-.761-2.74-1.488-2.945-2.535.519-.226 1.056-.453 1.608-.684zm-6.65 5.409c0-1.969 1.733-3.187 4.104-4.302.395 1.363 1.92 2.191 3.409 2.993 1.314.708 2.559 1.384 2.893 2.316h-10.406v-1.007zm22 1.007h-10.406c.334-.932 1.579-1.609 2.893-2.316 1.488-.801 3.013-1.629 3.409-2.993 2.372 1.116 4.104 2.333 4.104 4.302v1.007zM9.501 9.003l.362-.009h.274l.363.009c.004.273.227.492.5.492.276 0 .5-.224.5-.5 0-.298-.089-.538-.266-.713-.296-.294-.711-.29-1.105-.288l-.129.001h-.129c-.392-.003-.808-.007-1.105.287-.176.175-.266.415-.266.713 0 .276.226.473.502.473.255 0 .468-.215.499-.465zM13.003 9.468c.254 0 .467-.214.498-.464l.362-.009h.274l.363.009c.004.273.227.492.5.492.276 0 .5-.224.5-.5 0-.298-.089-.538-.266-.713-.296-.294-.707-.29-1.105-.288h-.129l-.129-.001c-.394-.002-.809-.006-1.105.288-.176.175-.266.415-.266.713 0 .276.227.473.503.473z"/></g></svg>