<svg version="1" xmlns="http://www.w3.org/2000/svg" width="24" height="24" viewBox="0 0 24 24"><g><path d="M7.507 9.5c-.276 0-.5.224-.5.5v2.5l-2.1-2.8c-.13-.172-.354-.243-.559-.174-.204.068-.341.259-.341.474v4c0 .276.224.5.5.5s.5-.224.5-.5v-2.5l2.1 2.8c.097.128.246.2.4.2l.158-.026c.204-.068.342-.259.342-.474v-4c0-.276-.224-.5-.5-.5zM12.007 13.5h-2v-1h1.5c.276 0 .5-.224.5-.5s-.224-.5-.5-.5h-1.5v-1h1.91c.276 0 .5-.224.5-.5s-.224-.5-.5-.5h-2.41c-.276 0-.5.224-.5.5v4c0 .276.224.5.5.5h2.5c.276 0 .5-.224.5-.5s-.224-.5-.5-.5zM19.683 9.532c-.258-.096-.547.033-.643.292l-1.032 2.752-1.032-2.752c-.146-.39-.789-.39-.935 0l-1.032 2.752-1.032-2.752c-.098-.259-.388-.388-.643-.292-.259.097-.39.385-.292.644l1.5 4c.146.39.789.39.936 0l1.032-2.752 1.032 2.752c.073.195.26.324.468.324s.395-.129.468-.324l1.5-4c.094-.259-.037-.547-.295-.644zM12.007 0c-6.617 0-12 5.383-12 12s5.383 12 12 12 12-5.383 12-12-5.383-12-12-12zm0 23c-6.065 0-11-4.935-11-11s4.935-11 11-11c6.066 0 11 4.935 11 11s-4.935 11-11 11z"/></g></svg>