<svg version="1" xmlns="http://www.w3.org/2000/svg" width="24" height="24" viewBox="0 0 24 24"><g><path d="M21.05 16.776l-5.301-1.608c.894-.841 1.604-1.94 1.731-3.246.686-.234 1.146-.971 1.146-1.922 0-.297-.057-.562-.14-.809l.513-3.641c.008-.08.179-1.976-1.244-3.549-1.203-1.328-3.138-2.001-5.755-2.001s-4.551.673-5.753 2.001c-1.423 1.573-1.252 3.469-1.241 3.57l.519 3.599c-.088.252-.149.524-.149.83 0 .951.46 1.688 1.145 1.922.127 1.307.837 2.406 1.731 3.246l-5.331 1.618c-1.747.654-2.92 2.348-2.92 4.213v2.5c0 .276.224.5.5.5h23c.276 0 .5-.224.5-.5v-2.499c-.001-1.866-1.174-3.559-2.951-4.224zm-14.062-14.104c1.004-1.11 2.691-1.672 5.012-1.672 2.314 0 3.996.559 5.002 1.66 1.126 1.234 1.003 2.77 1.003 2.77l-.385 2.733-.198-.103-.432-2.158c-.046-.234-.251-.402-.49-.402-2.984 0-3.486-.84-3.819-1.397-.099-.165-.192-.322-.328-.457-.188-.188-.519-.188-.707 0-.135.135-.229.291-.328.457-.331.557-.834 1.397-3.817 1.397-.238 0-.443.168-.49.402l-.432 2.158-.19.098-.391-2.708c-.001-.015-.139-1.531.99-2.778zm.513 8.828c0-.276-.224-.5-.5-.5-.494 0-.625-.654-.625-1s.131-1 .625-1c.238 0 .443-.168.49-.402l.421-2.103c2.628-.07 3.55-.819 4.089-1.601.539.781 1.461 1.53 4.089 1.601l.421 2.103c.046.234.251.402.489.402.494 0 .625.654.625 1s-.13 1-.625 1c-.276 0-.5.224-.5.5 0 2.6-3.158 4.5-4.5 4.5s-4.499-1.9-4.499-4.5zm15.499 11.5h-22v-2c0-1.451.913-2.768 2.241-3.267l5.957-1.807c1.026.693 2.113 1.074 2.802 1.074.689 0 1.776-.381 2.803-1.074l5.926 1.797c1.359.509 2.271 1.826 2.271 3.277v2zM9.501 9.508l.362-.008h.274l.363.009c.005.272.227.491.5.491.276 0 .5-.224.5-.5 0-.298-.089-.538-.266-.713-.296-.294-.71-.289-1.105-.288l-.129.001h-.129c-.392-.001-.808-.007-1.105.287-.176.175-.266.415-.266.713 0 .276.226.473.502.473.255 0 .468-.215.499-.465zM13.003 9.973c.254 0 .467-.214.498-.464l.362-.009h.274l.363.009c.005.272.227.491.5.491.276 0 .5-.224.5-.5 0-.298-.089-.538-.266-.713-.295-.294-.711-.289-1.104-.287h-.259c-.394-.001-.808-.006-1.105.288-.176.174-.266.414-.266.712 0 .276.227.473.503.473z"/></g></svg>