<svg xmlns="http://www.w3.org/2000/svg" height="18" viewBox="0 0 18 18" width="18">
  <defs>
    <style>
      .a {
        fill: #6E6E6E;
      }
    </style>
  </defs>
  <title>S GearsDelete 18 N</title>
  <rect id="Canvas" fill="#ff13dc" opacity="0" width="18" height="18" /><path class="a" d="M7.085,15.196a3.0709,3.0709,0,0,0,.45-1.0895h.4a5.371,5.371,0,0,1,0-1.214h-.4a3.07053,3.07053,0,0,0-.45-1.0895l.7565-.7565A.303.303,0,0,0,7.842,10.618L7.8415,10.6175l-.46-.46a.3035.3035,0,0,0-.429,0l-.7565.7565a3.07344,3.07344,0,0,0-1.089-.45V9.4035A.3035.3035,0,0,0,4.8035,9.1h-.607a.3035.3035,0,0,0-.3035.3035V10.466a3.07344,3.07344,0,0,0-1.089.45l-.7565-.758a.3035.3035,0,0,0-.429,0l-.46.46a.303.303,0,0,0-.00049.42851l.00049.00049.7565.757a3.07053,3.07053,0,0,0-.45,1.0895H.4035a.303.303,0,0,0-.303.303v.6075a.30351.30351,0,0,0,.303.3035H1.466a3.0709,3.0709,0,0,0,.45,1.0895l-.758.756a.303.303,0,0,0-.00049.42851L1.158,16.382l.46.46a.3035.3035,0,0,0,.429,0l.757-.757a3.073,3.073,0,0,0,1.089.45v1.0625a.3035.3035,0,0,0,.3035.3035h.607a.3035.3035,0,0,0,.3035-.3035V16.534a3.073,3.073,0,0,0,1.089-.45l.7565.7565a.3035.3035,0,0,0,.429,0l.46-.46A.303.303,0,0,0,7.842,15.952L7.8415,15.9515ZM4.5,15.082A1.582,1.582,0,1,1,6.082,13.5h0A1.582,1.582,0,0,1,4.5,15.082Z" />
  <path class="a" d="M9.4355,9.6595A5.603,5.603,0,0,1,11.891,8.138a2.096,2.096,0,1,1,.94-.1945,5.488,5.488,0,0,1,3.9.989l.3.1215a.432.432,0,0,0,.5633-.23651l.0002-.00049.3265-.8a.4325.4325,0,0,0-.237-.5635l-1.4-.5715a4.37459,4.37459,0,0,0-.006-1.6785l1.4055-.591a.4325.4325,0,0,0,.231-.566l-.3645-.855a.4325.4325,0,0,0-.566-.231L15.5785,3.55a4.38113,4.38113,0,0,0-1.196-1.178l.5715-1.4a.432.432,0,0,0-.23627-.56341L14.7175.4085l-.8-.3265a.4325.4325,0,0,0-.5635.237l-.5715,1.4a4.38154,4.38154,0,0,0-1.6785.006L10.512.322A.4325.4325,0,0,0,9.946.091L9.0915.45a.4325.4325,0,0,0-.231.566L9.45,2.4215a4.378,4.378,0,0,0-1.178,1.196l-1.4-.5715a.432.432,0,0,0-.5633.23651L6.3085,3.283l-.3265.8a.4325.4325,0,0,0,.237.5635l1.4.5715a4.38035,4.38035,0,0,0,.006,1.6785l-1.4055.591a.4325.4325,0,0,0-.2305.566l.3595.854a.432.432,0,0,0,.5655.23121l.0005-.00021,1.405-.591A4.39146,4.39146,0,0,0,9.4355,9.6595Z" />
  <path class="a" d="M13.5,9.05a4.45,4.45,0,1,0,4.45,4.45A4.45,4.45,0,0,0,13.5,9.05Zm2.5,4.7a.25.25,0,0,1-.25.25h-4.5a.25.25,0,0,1-.25-.25v-.5a.25.25,0,0,1,.25-.25h4.5a.25.25,0,0,1,.25.25Z" />
</svg>