<?xml version="1.0" encoding="UTF-8"?>
<svg width="18px" height="18px" viewBox="0 0 18 18" version="1.1" xmlns="http://www.w3.org/2000/svg" xmlns:xlink="http://www.w3.org/1999/xlink">
    <title>a</title>
    <g id="a" stroke="none" stroke-width="1" fill="none" fill-rule="evenodd">
        <rect id="Canvas" fill-opacity="0" fill="#FFFFFF" x="0" y="0" width="18" height="18"></rect>
        <path d="M3.742,11.782 L7.91462189,13.907805 C7.99706206,15.0533146 8.42405639,16.1033961 9.0924968,16.9549414 C9.01931557,16.9716448 8.94278973,16.9686361 8.87014757,16.9476563 L8.7875,16.915 L1.442,13.1755 C1.33871429,13.1227857 1.32395918,13.0417857 1.39773469,12.9809898 L1.442,12.9525 L3.742,11.782 Z M3.742,7.782 L8.8477166,10.3818665 C8.42473916,11.0117065 8.12628003,11.7321664 7.98759385,12.5079914 L1.442,9.1755 C1.33871429,9.12278571 1.32395918,9.04178571 1.39773469,8.9809898 L1.442,8.9525 L3.742,7.782 Z M13.5,9.05 C15.9576671,9.05 17.95,11.0423329 17.95,13.5 C17.95,15.9576671 15.9576671,17.95 13.5,17.95 C11.0423329,17.95 9.05,15.9576671 9.05,13.5 C9.05,11.0423329 11.0423329,9.05 13.5,9.05 Z M15.75,13 L11.25,13 C11.1119288,13 11,13.1119288 11,13.25 L11,13.25 L11,13.75 C11,13.8880712 11.1119288,14 11.25,14 L11.25,14 L15.75,14 C15.8880712,14 16,13.8880712 16,13.75 L16,13.75 L16,13.25 C16,13.1119288 15.8880712,13 15.75,13 L15.75,13 Z M9.2125,1.2125 L16.5565,4.95 C16.677,5.0115 16.677,5.1115 16.5565,5.173 L9.2125,8.915 C9.07900149,8.98303397 8.92099851,8.98303397 8.7875,8.915 L1.4435,5.1755 C1.323,5.114 1.323,5.014 1.4435,4.9525 L8.7875,1.2125 C8.92113348,1.14503045 9.07886652,1.14503045 9.2125,1.2125 Z" id="Shape" fill="#6E6E6E" fill-rule="nonzero"></path>
    </g>
</svg>