<svg xmlns="http://www.w3.org/2000/svg" height="18" viewBox="0 0 18 18" width="18">
  <defs>
    <style>
      .a {
        fill: #6e6e6e;
      }
    </style>
  </defs>
  <title>S HelpOutline 18 N</title>
  <rect id="Canvas" fill="#ff13dc" opacity="0" width="18" height="18" /><path class="a" d="M10.09064,12.966a.9167.9167,0,0,1-.97722,1.0076.93092.93092,0,0,1-.97769-1.0076.97756.97756,0,0,1,1.95491-.02931Q10.09085,12.95135,10.09064,12.966ZM8.97658,4a4.61617,4.61617,0,0,0-2.2591.5362c-.05924.03139-.05924.09215-.05924.15342V6.17521a.07459.07459,0,0,0,.11854.06076,3.69224,3.69224,0,0,1,1.87246-.50481c.90632,0,1.26328.38278,1.26328.93417,0,.47493-.28253.79645-.77259,1.30176C8.42665,8.70278,7.99526,9.1615,7.99526,9.8815a1.70875,1.70875,0,0,0,.357,1.05721A.244.244,0,0,0,8.54519,11h1.2929a.06531.06531,0,0,0,.05931-.10734,1.65129,1.65129,0,0,1-.23779-.843c0-.45874.54994-.96405,1.12955-1.53113a2.73714,2.73714,0,0,0,.95107-2.1129C11.74024,5.05774,10.75955,4,8.97658,4ZM17.5,9A8.5,8.5,0,1,1,9,.50005H9A8.5,8.5,0,0,1,17.5,9ZM15.6748,9A6.67481,6.67481,0,1,0,9,15.67476H9A6.67476,6.67476,0,0,0,15.6748,9Z" />
</svg>